<svg xmlns="http://www.w3.org/2000/svg" width="200" height="200" viewBox="0 0 200 200"><path d="m174.9 194.4-120.3 0.54v-11.22l110.1-0.58-0.04-167h-10.14l-0.87-8.48-83.39 0.05-30.19 33.12 0.1 97.69-1.28 1.45 0.91 31.12 7.39 1.09v11.63l6.15-0.13 1 10.77h120.6z" fill="#F1FDFF"></path><path d="m175.5 197.4-120.8 0.51c-2.09 0.01-2.95-1.63-2.95-2.75v-8.48l-4.64 0.03c-2.06 0.01-2.9-1.61-2.9-2.91v-9.75l-5.72-0.37-0.37-3-0.67-31.35 0.11-98.57c0-0.8 0.31-1.56 0.85-2.14l30.04-32.57c0.65-0.72 1.38-1.07 2.34-1.07h83.07c1.94 0 2.94 1.81 2.94 3.05v5.03h8c1.99 0 3.01 1.75 3.01 3.04l10.48-0.07v178.4c0 1.77-1.33 2.97-2.75 2.98zm-117.8-5.61 115.1-0.49v-172.3h-15.9c-2.02 0-3.08-1.66-3.08-2.9v-5.47l-82.26 0.05-28.29 31.3 0.1 96.51-1.15 1.18 0.76 30.65 4.57 0.67c1.5 0.14 2.4 1.59 2.4 2.77v7.32l4.29-0.12c2.01 0 3.14 1.54 3.14 2.82l0.35 8.01z" fill="#344547"></path><path d="m164.5 185.8-116.7 0.35c-2.01 0-3.14-1.54-3.14-2.82v-10.91c0-1.95 1.63-3.05 3.05-3.07l74.93-0.92 1.18-26.21c0.08-1.78 1.54-2.94 2.93-2.88l26.98-1.13c2.07-0.09 3.2 1.63 3.2 2.98 0 0.98-0.38 1.88-1.05 2.53l-28.41 28.9c-0.64 0.66-1.49 1.02-2.39 1.02l-75.52 0.93v5.85l112.1-0.34v-110.4h5.64v113c0 1.85-1.45 3.12-2.78 3.13zm-35.84-40.66-0.46 18.78 19.6-19.68-19.14 0.9z" fill="#344547"></path><path d="m40.18 43.71-0.39-4.65 28.41-1.38 0.42-30.39 4.84-0.07-0.32 32.3c-0.02 1.59-1.03 2.74-2.73 2.84l-30.23 1.35z" fill="#344547"></path><path d="m192.9 4.77c-18.75 6.39-30.75 19.15-40.67 28.49-21.96 21.03-70.4 70.39-85.77 81.93l30.95 34.62c6.54-3.18 37.78-37.93 50.69-57.24 11.78-14.56 41.89-54.78 44.8-87.8z" fill="#CCD8DD" stroke="#344547" stroke-linecap="round" stroke-linejoin="round" stroke-miterlimit="10" stroke-width="6"></path><path d="m66.42 114.6-58.51 54.58c-6.82 6.61-6.72 18.89 2.15 23.83 7.53 4.28 16.99 1.42 22.75-3.64-0.5-8.3 2.96-14.45 11.12-19.33 7.97-4.77 13.16-11.09 16.96-17.34 6.82-11.34 9.54-14.06 21.76-15.34l-16.23-22.76z" fill="#546268" stroke="#344547" stroke-linecap="round" stroke-linejoin="round" stroke-miterlimit="10" stroke-width="6"></path><path d="m189.4 9.46c-7.26 16.42-17.07 28.28-34.67 47.3-7.71 8.47-7.07 16.2-6.86 22.41 0.33 8.95-0.41 11.81-4.14 20.04 13.79-16.84 44.18-55.5 45.67-89.75z" fill="#89002E"></path><path d="m187.4 55.96c-0.91 8.85-12.57 21.92-12.67 29.66-0.1 7.4 5.39 11.96 12.04 11.96 7.55 0 11.77-7.25 11.5-11.96-0.35-6.33-9.5-17.83-10.87-29.66z" fill="#89002E"></path><path d="m168.2 88.48c-1.12 13.48-16.04 29.26-16.4 40.42-0.31 9.02 7.24 15.69 14.88 15.69 9.45 0 17.25-8.85 17.25-15.35 0-8.53-11.86-22.08-15.73-40.76z" fill="#89002E"></path></svg>